<?xml version="1.0" encoding="UTF-8" standalone="no"?>
<!DOCTYPE svg PUBLIC "-//W3C//DTD SVG 1.1//EN" "http://www.w3.org/Graphics/SVG/1.1/DTD/svg11.dtd">
<svg width="100%" height="100%" viewBox="0 0 383 202" version="1.1" xmlns="http://www.w3.org/2000/svg" xmlns:xlink="http://www.w3.org/1999/xlink" xml:space="preserve" xmlns:serif="http://www.serif.com/" style="fill-rule:evenodd;clip-rule:evenodd;stroke-linecap:round;stroke-linejoin:round;stroke-miterlimit:1.5;">
    <g transform="matrix(1,0,0,1,-3124.76,-169.573)">
        <g transform="matrix(1,0,0,1,364.21,0)">
            <g transform="matrix(0.163494,0,0,0.163494,2889.4,269.972)">
                <g transform="matrix(1,0,0,1,50.6339,19.9744)">
                    <path d="M268.749,247.212C261.057,245.452 254.319,244.028 247.523,248.84C232.653,259.369 238.13,280.581 255.752,283.776C265.772,285.593 276.312,281.268 279.213,270.829C281.478,262.676 279.051,248.641 268.981,247.605" style="fill:none;stroke:black;stroke-width:2.92px;"/>
                </g>
                <g transform="matrix(1,0,0,1,50.6339,19.9744)">
                    <path d="M256.324,285.309C256.099,286.713 255.893,288.12 255.684,289.526" style="fill:none;stroke:black;stroke-width:2.92px;"/>
                </g>
                <g transform="matrix(1,0,0,1,50.6339,19.9744)">
                    <path d="M267.711,284.848C267.685,286.876 267.895,288.896 268.028,290.918" style="fill:none;stroke:black;stroke-width:2.92px;"/>
                </g>
                <g transform="matrix(1,0,0,1,50.6339,19.9744)">
                    <path d="M268.1,288.635C272.527,287.558 277.306,286.772 281.369,284.6C297.631,275.908 303.606,257.317 311.086,241.741C311.725,240.411 312.366,239.081 313.056,237.776C315.549,233.06 321.964,221.286 328.67,227.611C335.774,234.311 326.9,248.173 323.481,254.422C315.787,268.487 308.08,282.708 296.471,294.031C289.998,300.343 277.398,303.158 275.448,313.046C273.332,323.771 277.932,336.146 279.688,346.736C282.259,362.242 280.414,377.652 281.855,393.171C282.682,402.079 285.629,410.672 287.674,419.332C288.333,422.12 288.925,424.923 289.571,427.714C289.78,428.619 289.998,429.522 290.213,430.426C290.299,430.784 290.526,431.865 290.469,431.501" style="fill:none;stroke:black;stroke-width:2.92px;"/>
                </g>
                <g transform="matrix(1,0,0,1,50.6339,19.9744)">
                    <path d="M291.24,430.522C297.669,429.759 306.426,427.726 307.152,436.901C307.267,438.363 306.954,439.746 306.234,441.025C305.008,443.201 302.928,444.801 300.815,446.055C295.638,449.126 283.048,453.525 277.089,449.58C272.241,446.371 271.154,440.452 270.518,435.091C269.808,429.115 269.798,423.082 269.729,417.072C269.614,407.008 269.224,396.929 267.718,386.964" style="fill:none;stroke:black;stroke-width:2.92px;"/>
                </g>
                <g transform="matrix(1,0,0,1,50.6339,19.9744)">
                    <path d="M268.156,388.45C266.795,385.26 265.431,382.067 264.21,378.82C263.777,377.669 263.376,376.507 262.966,375.348C262.775,374.807 262.777,373.322 262.372,373.73C258.728,377.408 257.958,385.865 257.296,390.74C255.731,402.265 254.646,413.957 253.918,425.564C253.694,429.134 252.654,433.026 252.734,436.561C252.754,437.488 254.51,436.027 255.392,435.74C257.29,435.123 259.295,434.288 261.287,433.991C265.071,433.426 267.318,437.415 267.953,440.569C269.353,447.53 262.099,452.977 256.831,455.924C247.482,461.156 234.297,461.222 231.491,448.114C229.272,437.743 233.391,425.274 236.067,415.217" style="fill:none;stroke:black;stroke-width:2.92px;"/>
                </g>
                <g transform="matrix(1,0,0,1,50.6339,19.9744)">
                    <path d="M236.697,415.529C238.96,403.137 241.542,390.721 242.424,378.131C243.005,369.82 243.121,361.476 243.208,353.147C243.263,347.882 243.254,342.617 243.178,337.352C243.104,332.234 242.98,327.121 242.856,322.005C242.816,320.343 242.759,318.68 242.704,317.019C242.675,316.149 243.218,313.791 242.608,314.411C240.829,316.221 239.285,318.249 238.029,320.456C237.198,321.916 236.45,323.429 235.806,324.981C234.577,327.947 233.616,331.029 232.82,334.138C230.631,342.692 229.844,351.553 228.83,360.302C228.281,365.034 228.101,370.44 226.302,374.918C223.752,381.262 213.609,382.203 211.068,375.469C208.342,368.245 211.281,359.471 213.373,352.48C215.414,345.661 218.292,339.068 219.75,332.082" style="fill:none;stroke:black;stroke-width:2.92px;"/>
                </g>
                <g transform="matrix(1,0,0,1,50.6339,19.9744)">
                    <path d="M220.256,332.79C222.571,327.283 225.181,321.931 227.618,316.481C230.848,309.261 234.335,300.531 240.816,295.479C244.561,292.559 249.416,291.206 253.998,290.256" style="fill:none;stroke:black;stroke-width:2.92px;"/>
                </g>
                <g transform="matrix(1,0,0,1,50.6339,19.9744)">
                    <path d="M252.625,291.346C255.888,294.406 259.159,299.767 263.644,301.134C270.437,303.204 275.867,294.148 274.683,288.499" style="fill:none;stroke:black;stroke-width:2.92px;"/>
                </g>
                <g transform="matrix(1,0,0,1,50.6339,19.9744)">
                    <path d="M314.409,237.061C318.315,240.96 321.789,244.281 327.117,245.963" style="fill:none;stroke:black;stroke-width:2.92px;"/>
                </g>
                <g transform="matrix(1,0,0,1,50.6339,19.9744)">
                    <path d="M211.196,364.598C216.917,364.598 222.488,364.101 227.446,367.317" style="fill:none;stroke:black;stroke-width:2.92px;"/>
                </g>
                <g transform="matrix(1,0,0,1,50.6339,19.9744)">
                    <path d="M243.756,362.505C256.141,362.505 269.098,364.232 280.382,358.215" style="fill:none;stroke:black;stroke-width:2.92px;"/>
                </g>
                <g transform="matrix(1,0,0,1,50.6339,19.9744)">
                    <path d="M270.451,426.654C276.309,426.654 282.77,427.561 287.874,424.058" style="fill:none;stroke:black;stroke-width:2.92px;"/>
                </g>
                <g transform="matrix(1,0,0,1,50.6339,19.9744)">
                    <path d="M233.27,427.148C240.031,429.495 246.799,429.308 253.494,426.856" style="fill:none;stroke:black;stroke-width:2.92px;"/>
                </g>
            </g>
        </g>
        <g transform="matrix(1,0,0,1,364.21,0)">
            <g transform="matrix(0.339174,0,0,0.339174,2952.65,267.432)">
                <text x="151.692px" y="137.063px" style="font-family:'CrimsonText-Regular', 'Crimson Text';font-size:20px;">If you say so...</text>
            </g>
        </g>
        <g transform="matrix(1,0,0,1,364.21,0)">
            <g transform="matrix(0.193848,0,0,0.193848,2903.69,255.861)">
                <path d="M432.328,354.928C427.228,352.033 420.102,348.915 414.248,351.619C403.351,356.652 401.875,374.05 411.12,381.021C417.117,385.543 425.769,385.893 431.863,381.272C438.351,376.352 441.329,363.638 435.45,357.172" style="fill:none;stroke:black;stroke-width:2.46px;"/>
            </g>
        </g>
        <g transform="matrix(1,0,0,1,364.21,0)">
            <g transform="matrix(0.193848,0,0,0.193848,2903.69,255.861)">
                <path d="M418.29,385.175C417.939,387.494 417.779,389.796 417.724,392.138" style="fill:none;stroke:black;stroke-width:2.46px;"/>
            </g>
        </g>
        <g transform="matrix(1,0,0,1,364.21,0)">
            <g transform="matrix(0.193848,0,0,0.193848,2903.69,255.861)">
                <path d="M428.979,384.462C429.321,386.479 429.631,388.501 429.865,390.533" style="fill:none;stroke:black;stroke-width:2.46px;"/>
            </g>
        </g>
        <g transform="matrix(1,0,0,1,364.21,0)">
            <g transform="matrix(0.193848,0,0,0.193848,2903.69,255.861)">
                <path d="M417.724,389.541C410.651,390.434 405.395,390.768 400.349,396.226C398.938,397.751 397.593,399.34 396.311,400.974C394.429,403.373 392.916,406.186 390.805,408.398C390.07,409.167 389.218,409.825 388.358,410.446C387.964,410.731 387.246,411.742 387.151,411.265C386.73,409.162 387.551,406.512 388.078,404.485C389.517,398.96 391.859,393.871 395.62,389.541C397.479,387.4 399.59,385.451 401.362,383.237C401.727,382.78 402.886,381.453 402.749,380.757C402.717,380.597 401.536,380.173 401.296,380.044C399.581,379.122 398.199,378.293 396.13,378.56C391.054,379.215 386.216,383.908 383.084,387.581C373.802,398.469 367.743,421.03 381.638,431.188C385.638,434.111 389.69,433.167 393.254,429.876C397.687,425.782 399.715,419.874 403.224,415.075C404.624,413.161 406.059,411.318 407.765,409.662C407.958,409.474 409.06,408.222 409.232,408.277C409.679,408.419 409.832,411.775 409.882,412.325C410.279,416.704 410.062,421.109 410.196,425.497C410.729,442.998 410.786,460.151 409.844,477.608" style="fill:none;stroke:black;stroke-width:2.46px;"/>
            </g>
        </g>
        <g transform="matrix(1,0,0,1,364.21,0)">
            <g transform="matrix(0.193848,0,0,0.193848,2903.69,255.861)">
                <path d="M409.819,478.626C408.606,482.545 407.131,486.303 405.404,490.021C402.462,496.357 400.141,502.879 397.815,509.458C394.897,517.707 390.487,526.783 401.321,531.22C403.055,531.93 404.92,532.311 406.776,532.52C409.543,532.831 412.699,532.897 415.393,532.078C418.704,531.071 418.198,524.06 415.982,521.896C415.173,521.107 412.824,520.408 412.338,519.594C411.512,518.212 411.615,516.313 411.934,514.804C414.79,501.311 423.611,489.482 427.36,476.187C428.55,471.966 429.195,467.562 429.237,463.173C429.251,461.592 429.176,460.015 429.1,458.436C429.064,457.705 428.307,456.006 429,456.242C429.927,456.558 430.984,458.684 431.519,459.527C434.087,463.57 435.715,468.269 436.84,472.893C437.929,477.365 438.531,481.924 439.063,486.49C440.443,498.327 443.335,509.691 446.226,521.228C446.855,523.737 446.821,530.479 448.657,532.097C452.257,535.269 459.071,534.278 463.071,532.507C465.192,531.569 467.153,530.279 468.929,528.795C470.893,527.153 474.446,524.546 474.262,521.464C474.101,518.765 466.12,516.502 464.274,516.329C462.806,516.19 461.322,516.257 459.854,516.367C459.203,516.415 457.93,517.199 457.902,516.546C457.616,509.68 458.509,503.035 457.634,496.072C455.658,480.345 449.835,464.896 444.287,450.143C440.368,439.723 437.521,430.123 437.958,418.886C438.049,416.553 438.181,414.221 438.33,411.892C438.406,410.698 437.468,407.807 438.553,408.311C447.86,412.637 450.882,428.887 453.095,437.854C453.525,439.595 454.67,449.682 457.741,450.45C459.566,450.906 462.515,447.644 463.433,446.547C468.001,441.091 469.209,433.832 467.467,427.021C464.551,415.626 455.404,406.294 446.946,398.619C441.776,393.927 436.884,389.348 429.766,388.32" style="fill:none;stroke:black;stroke-width:2.46px;"/>
            </g>
        </g>
        <g transform="matrix(1,0,0,1,364.21,0)">
            <g transform="matrix(0.193848,0,0,0.193848,2903.69,255.861)">
                <path d="M415.6,390.361C415.653,394.302 415.932,398.591 420.167,400.352C424.509,402.157 429.924,397.966 432.437,394.798C433.408,393.574 434.518,391.936 434.482,390.278" style="fill:none;stroke:black;stroke-width:2.46px;"/>
            </g>
        </g>
        <g transform="matrix(1,0,0,1,364.21,0)">
            <g transform="matrix(0.193848,0,0,0.193848,2903.69,255.861)">
                <path d="M396.537,401.32C396.955,405.989 398.524,411.686 403.164,413.906" style="fill:none;stroke:black;stroke-width:2.46px;"/>
            </g>
        </g>
        <g transform="matrix(1,0,0,1,364.21,0)">
            <g transform="matrix(0.193848,0,0,0.193848,2903.69,255.861)">
                <path d="M442.565,411.09C445.239,408.187 448.214,405.324 449.068,401.327" style="fill:none;stroke:black;stroke-width:2.46px;"/>
            </g>
        </g>
        <g transform="matrix(1,0,0,1,364.21,0)">
            <g transform="matrix(0.193848,0,0,0.193848,2903.69,255.861)">
                <path d="M411.1,448.745C421.528,449.757 432.332,446.902 440.114,439.805" style="fill:none;stroke:black;stroke-width:2.46px;"/>
            </g>
        </g>
        <g transform="matrix(1,0,0,1,364.21,0)">
            <g transform="matrix(0.193848,0,0,0.193848,2903.69,255.861)">
                <path d="M396.895,515.686C401.737,518.909 405.648,520.681 411.451,520.479" style="fill:none;stroke:black;stroke-width:2.46px;"/>
            </g>
        </g>
        <g transform="matrix(1,0,0,1,364.21,0)">
            <g transform="matrix(0.193848,0,0,0.193848,2903.69,255.861)">
                <path d="M447.424,523.694C451.671,522.127 456.07,520.377 459.7,517.584" style="fill:none;stroke:black;stroke-width:2.46px;"/>
            </g>
        </g>
        <g transform="matrix(1,0,0,1,364.21,0)">
            <g transform="matrix(0.339174,0,0,0.339174,2833.36,191.194)">
                <path d="M490.663,364.592C483.943,327.772 517.52,323.667 546.142,322.491C575.73,321.277 607.582,317.14 620.21,349.961C622.012,354.646 623.475,359.588 623.625,364.639C624.036,378.48 609.784,385.198 598.007,387.636C572.804,392.853 547.597,383.738 522.475,382.042C511.842,381.324 501.077,380.971 490.575,383.065C487.208,383.736 483.885,384.629 480.601,385.622C479.188,386.049 475.131,387.577 475.35,387.369C481.787,381.224 490.8,376.139 490.268,366.024" style="fill:none;stroke:black;stroke-width:1.41px;"/>
            </g>
        </g>
        <g transform="matrix(1,0,0,1,364.21,0)">
            <g transform="matrix(0.339174,0,0,0.339174,2816.18,184.42)">
                <path d="M680.643,41.198C661.789,27.631 632.63,50.747 653.769,66.45C661.154,71.936 672.428,75.19 681.282,71.606C694.184,66.384 690.458,49.497 680.91,42.782" style="fill:none;stroke:black;stroke-width:1.41px;"/>
            </g>
        </g>
        <g transform="matrix(1,0,0,1,364.21,0)">
            <g transform="matrix(0.339174,0,0,0.339174,2816.18,195.229)">
                <path d="M-162.865,300.562L-145.234,293.431L-114.538,302.822L-73.26,302.822L-38.098,291.068L8.45,287.516L79.862,309.479L99.578,292.477L179.059,273.547L253.001,292.477L285.842,285.605L343.474,284.917L343.742,284.917L370.28,292.477L394.567,284.917L466.43,273.547L516.977,285.605L602.931,273.547L697.104,284.917L748.959,273.547L788.88,282.44L851.845,263.519L881.586,268.136L918.193,279.323L962.865,263.519" style="fill:white;stroke:black;stroke-width:1.41px;"/>
            </g>
        </g>
        <g transform="matrix(1,0,0,1,364.21,0)">
            <g transform="matrix(0.245191,0,0,0.245191,2789.76,239.656)">
                <g transform="matrix(1,0,0,1,-13.6837,123.308)">
                    <path d="M107.997,341.263C102.989,340.752 97.883,340.834 93.803,344.284C92.074,345.745 91.463,347.847 91.967,350.032C92.031,350.309 92.268,351.784 92.554,351.862C93.743,352.188 96.024,351.373 97.213,351.178C101.158,350.529 105.106,349.248 109.109,349.051C111.354,348.941 113.758,349.028 115.872,349.878C117.627,350.585 119.462,352.138 121.388,352.21C122.004,352.233 121.892,349.965 121.891,349.937C121.823,347.93 121.404,345.801 120.1,344.216C117.268,340.773 110.971,340.219 106.794,340.921" style="fill:none;stroke:black;stroke-width:1.95px;"/>
                </g>
                <g transform="matrix(1,0,0,1,-13.6837,123.308)">
                    <path d="M104.262,353.045C104.968,352.497 105.697,352.001 106.511,351.625C108.954,350.496 110.775,352.113 111.763,354.337C113.558,358.376 112.418,362.362 112.203,366.559C112.119,368.2 112.71,369.718 112.724,371.3C112.733,372.369 110.909,373.177 110.106,373.418C109.936,373.469 107.773,373.996 107.694,373.688C107.471,372.815 107.739,371.653 107.836,370.776C108.032,368.996 108.177,367.209 108.222,365.418C108.324,361.333 106.971,356.979 104.706,353.539" style="fill:none;stroke:black;stroke-width:1.95px;"/>
                </g>
                <g transform="matrix(1,0,0,1,-13.6837,123.308)">
                    <path d="M93.163,352.285C94.063,357.838 101.289,357.968 105.626,357.152" style="fill:none;stroke:black;stroke-width:1.95px;"/>
                </g>
                <g transform="matrix(1,0,0,1,-13.6837,123.308)">
                    <path d="M113.034,356.235C115.696,355.453 118.242,354.551 120.46,352.827" style="fill:none;stroke:black;stroke-width:1.95px;"/>
                </g>
                <g transform="matrix(1,0,0,1,-13.6837,123.308)">
                    <path d="M137.13,357.559C133.684,354.852 128.422,353.159 124.044,354.319C122.461,354.738 117.142,357.842 119.806,360.096C121.202,361.276 123.477,360.927 125.152,360.87C126.375,360.828 127.597,360.784 128.817,360.902C129.643,360.982 130.468,361.121 131.275,361.319C133.301,361.819 138.866,365.132 138.896,360.851C138.9,360.381 138.83,359.907 138.711,359.452C138.521,358.724 138.131,358.054 137.628,357.498" style="fill:none;stroke:black;stroke-width:1.95px;"/>
                </g>
                <g transform="matrix(1,0,0,1,-13.6837,123.308)">
                    <path d="M126.824,362.685C127.667,362.993 128.885,363.285 129.557,363.948C130.771,365.146 129.839,368.389 129.703,369.767C129.614,370.668 130.023,372.343 129.476,373.171C129.294,373.446 129.044,373.671 128.779,373.864C126.609,375.443 126.406,372.648 126.475,371.037C126.519,370.036 126.574,369.038 126.564,368.036C126.549,366.481 126.523,364.921 126.467,363.367" style="fill:none;stroke:black;stroke-width:1.95px;"/>
                </g>
                <g transform="matrix(1,0,0,1,-13.6837,123.308)">
                    <path d="M120.498,361.018C120.568,361.504 120.668,361.98 120.852,362.437C121.712,364.565 123.772,364.946 125.84,365.165" style="fill:none;stroke:black;stroke-width:1.95px;"/>
                </g>
                <g transform="matrix(1,0,0,1,-13.6837,123.308)">
                    <path d="M130.491,365.275C132.509,365.206 134.881,365.023 136.463,363.603" style="fill:none;stroke:black;stroke-width:1.95px;"/>
                </g>
                <path d="M83.598,499.51C83.895,496.381 84.205,493.302 83.152,490.272C82.257,487.697 80.545,485.536 79.555,483.063C79.461,482.829 79.907,483.424 80.079,483.609C80.408,483.964 80.726,484.329 81.042,484.695C81.937,485.732 82.799,486.787 83.432,488.009C85.318,491.647 86.23,495.967 86.014,500.039" style="fill:none;stroke:black;stroke-width:1.95px;"/>
                <path d="M87.907,495.303C88.184,492.302 88.808,489.2 88.461,486.176C88.279,484.591 87.584,483.178 87.154,481.66" style="fill:none;stroke:black;stroke-width:1.95px;"/>
                <path d="M89.206,481.662C90.751,487.032 90.425,491.684 89.879,497.084" style="fill:none;stroke:black;stroke-width:1.95px;"/>
                <path d="M104.305,502.515C104.305,499.708 104.368,496.902 104.395,494.096C104.403,493.226 104.385,492.361 104.304,491.495C104.272,491.148 104.232,490.802 104.189,490.456C104.171,490.307 104.018,489.912 104.134,490.008C107.691,492.965 107.583,499.964 107.502,504.145" style="fill:none;stroke:black;stroke-width:1.95px;"/>
                <path d="M127.346,495.39C127.402,493.71 127.465,492.032 127.576,490.355C127.648,489.264 127.739,488.174 127.846,487.086C127.948,486.057 128.078,485.034 128.262,484.016C128.324,483.678 128.391,483.341 128.466,483.006C128.503,482.84 128.553,482.341 128.583,482.509C129.335,486.742 129.203,491.056 129.847,495.296" style="fill:none;stroke:black;stroke-width:1.95px;"/>
            </g>
        </g>
        <g transform="matrix(1,0,0,1,364.21,0)">
            <g transform="matrix(0.339174,0,0,0.339174,2816.18,184.42)">
                <path d="M-162.865,261.811L-137.848,252.649L-127.245,240.618L-119.431,239.531L-107.24,234.062L-96.619,238.336L-90.622,223.401L-73.543,235.113L-51.366,248.775L-30.388,270.61L3.346,276.735L39.274,266.148L66.302,277.721L79.496,258.542L93.213,267.922L134.12,216.51L154.601,226.498L186.232,223.401L229.912,252.649L246.985,268.116L258.35,268.116L285.042,271.33L328.07,252.292L352.998,263.543L380.902,261.811L392.974,267.366L413.585,260.835L432.839,265.535L454.597,265.535L537.351,250.261L537.351,250.171L585.139,261.811L612.448,255.668L634.573,265.841L664.88,231.075L692.006,247.242L717.015,243.124L761.606,258.511L783.566,245.76L794.8,248.775L810.49,246.665L835.794,247.076L852.145,235.113L871.261,252.292L919.657,231.075L930.927,234.062L962.865,231.075" style="fill:none;stroke:black;stroke-width:1.41px;"/>
            </g>
        </g>
        <g transform="matrix(1,0,0,1,364.21,0)">
            <g transform="matrix(0.339174,0,0,0.339174,2816.18,184.42)">
                <path d="M708.892,533.433C708.906,527.449 709.503,521.27 709.032,515.279C708.882,513.376 708.357,511.482 707.653,509.715C707.404,509.091 707.121,508.483 706.814,507.886C706.653,507.574 706.056,506.718 706.311,506.96C708.684,509.209 710.24,512.549 710.878,515.719C711.097,516.804 711.23,517.905 711.337,519.006C711.386,519.508 711.392,521.015 711.471,520.516C712.547,513.656 713.195,506.8 715.285,500.145C715.98,497.934 716.821,495.774 717.882,493.712C718.245,493.007 718.637,492.318 719.067,491.652C719.298,491.295 719.751,490.186 719.801,490.609C720.659,497.861 718.026,505.059 716.833,512.138C715.575,519.597 715.647,528.523 716.987,536.029" style="fill:none;stroke:black;stroke-width:1.41px;"/>
            </g>
        </g>
        <g transform="matrix(1,0,0,1,364.21,0)">
            <g transform="matrix(0.339174,0,0,0.339174,2816.18,184.42)">
                <path d="M727.98,540.118C727.954,535.916 727.64,531.753 727.039,527.592C726.823,526.096 726.574,524.602 726.273,523.119C726.17,522.609 726.058,522.101 725.939,521.594C725.87,521.304 725.598,520.455 725.723,520.726C728.752,527.262 730.86,534.292 731.897,541.427" style="fill:none;stroke:black;stroke-width:1.41px;"/>
            </g>
        </g>
        <g transform="matrix(1,0,0,1,364.21,0)">
            <g transform="matrix(0.339174,0,0,0.339174,2816.18,184.42)">
                <path d="M721.186,532.82C721.299,528.11 721.393,523.178 722.799,518.629C723.237,517.213 723.831,515.858 724.468,514.522C724.677,514.084 724.889,513.648 725.109,513.215C725.222,512.994 725.491,512.31 725.454,512.555C724.244,520.512 723.573,526.847 725.376,534.812" style="fill:none;stroke:black;stroke-width:1.41px;"/>
            </g>
        </g>
        <g transform="matrix(1,0,0,1,364.21,0)">
            <g transform="matrix(1,0,0,1,-364.21,0)">
                <rect x="3124.76" y="169.573" width="382.628" height="201.7" style="fill:none;"/>
            </g>
        </g>
        <g transform="matrix(1,0,0,1,364.21,0)">
            <g transform="matrix(0.339174,0,0,0.339174,2816.18,184.42)">
                <path d="M705.367,545.41C705.272,540.883 705.23,536.24 703.917,531.865C703.521,530.543 703,529.265 702.421,528.013C702.192,527.518 701.949,527.028 701.701,526.541C701.59,526.323 701.442,525.664 701.356,525.893C699.163,531.758 699.69,539.912 700.101,546.139" style="fill:none;stroke:black;stroke-width:1.41px;"/>
            </g>
        </g>
        <g transform="matrix(1,0,0,1,364.21,0)">
            <g transform="matrix(0.339174,0,0,0.339174,2816.18,184.42)">
                <path d="M162.61,406.002C183.078,400.153 199.208,391.501 221.056,395.767" style="fill:none;stroke:black;stroke-width:1.41px;"/>
            </g>
        </g>
        <g transform="matrix(1,0,0,1,364.21,0)">
            <g transform="matrix(0.339174,0,0,0.339174,2733.94,201.134)">
                <path d="M159.761,388.421C180.229,382.571 199.208,391.501 221.056,395.767" style="fill:none;stroke:black;stroke-width:1.41px;"/>
            </g>
        </g>
        <g transform="matrix(1,0,0,1,364.21,0)">
            <g transform="matrix(0.339174,0,0,0.339174,2816.18,184.42)">
                <path d="M569.228,498.373C592.825,498.11 623.171,491.738 645.745,497.233" style="fill:none;stroke:black;stroke-width:1.41px;"/>
            </g>
        </g>
        <g transform="matrix(1,0,0,1,364.21,0)">
            <g transform="matrix(0.339174,0,0,0.339174,2907.6,185.562)">
                <path d="M569.228,498.373C592.825,498.11 623.171,491.738 645.745,497.233" style="fill:none;stroke:black;stroke-width:1.41px;"/>
            </g>
        </g>
        <g transform="matrix(1,0,0,1,364.21,0)">
            <g transform="matrix(0.339174,0,0,0.339174,2816.18,184.42)">
                <path d="M216.537,527.557C248.379,522.93 280.29,506.54 312.445,515.335" style="fill:none;stroke:black;stroke-width:1.41px;"/>
            </g>
        </g>
        <g transform="matrix(1,0,0,1,364.21,0)">
            <g transform="matrix(0.339174,0,0,0.339174,2816.18,184.42)">
                <path d="M35.347,388.05C54.992,388.079 76.858,378.868 95.918,386.252" style="fill:none;stroke:black;stroke-width:1.41px;"/>
            </g>
        </g>
        <g transform="matrix(1,0,0,1,364.21,0)">
            <g transform="matrix(0.339174,0,0,0.339174,2816.18,184.42)">
                <path d="M685.457,440.181C696.687,437.04 706.886,437.082 717.888,440.892" style="fill:none;stroke:black;stroke-width:1.41px;"/>
            </g>
        </g>
        <g transform="matrix(1,0,0,1,364.21,0)">
            <g transform="matrix(0.19859,0,0,0.176324,2972.02,225.295)">
                <path d="M685.457,440.181C696.687,437.04 706.886,437.082 717.888,440.892" style="fill:none;stroke:black;stroke-width:2.54px;"/>
            </g>
        </g>
        <g transform="matrix(1,0,0,1,364.21,0)">
            <g transform="matrix(0.339174,0,0,0.339174,2803.59,210.327)">
                <path d="M147.455,334.937L138.491,341.185L135.791,353.649L138.491,357.307L145.098,357.307L152.444,355.248L153.68,348.02L159.129,345.73L159.129,343.312L153.68,338.537L151.1,334.937L147.455,334.937Z" style="fill:none;stroke:black;stroke-width:1.41px;"/>
            </g>
        </g>
        <g transform="matrix(1,0,0,1,364.21,0)">
            <g transform="matrix(0.339174,0,0,0.339174,2803.59,210.327)">
                <path d="M159.129,346.122L162.61,348.52L163.996,354.584L160.665,357.307L155.876,357.307L152.637,355.074" style="fill:none;stroke:black;stroke-width:1.41px;"/>
            </g>
        </g>
        <g transform="matrix(1,0,0,1,364.21,0)">
            <g transform="matrix(0.339174,0,0,0.339174,2835.26,220.061)">
                <g transform="matrix(1,0,0,1,50.6339,19.9744)">
                    <path d="M244.581,241.663C244.105,239.486 239.418,231.915 239.502,229.878C239.868,221.054 255.058,205.29 258.272,196.126C266.067,173.897 260.294,145.498 244.214,128.172C220.801,102.946 162.764,102.27 132.739,102.525C119.954,102.634 107.015,102.822 94.337,104.652C77.732,107.05 58.914,110.641 45.34,121.203C33.889,130.114 29.036,144.192 26.349,157.98C20.412,188.442 25.349,228.879 52.464,248.463C101.116,283.604 157.242,225.878 208.751,226.754C223.007,226.996 233.299,236.09 244.567,243.315" style="fill:white;stroke:black;stroke-width:1.41px;"/>
                </g>
                <g transform="matrix(1,0,0,1,-44.4155,25.5715)">
                    <text x="151.692px" y="137.063px" style="font-family:'CrimsonText-Regular', 'Crimson Text';font-size:20px;">There</text>
                    <text x="203.801px" y="137.063px" style="font-family:'CrimsonText-Italic', 'Crimson Text';font-style:italic;font-size:20px;">must</text>
                    <text x="242.844px" y="137.063px" style="font-family:'CrimsonText-Regular', 'Crimson Text';font-size:20px;">be some</text>
                    <text x="151.692px" y="158.86px" style="font-family:'CrimsonText-Regular', 'Crimson Text';font-size:20px;">absolute meaning</text>
                    <text x="151.692px" y="180.657px" style="font-family:'CrimsonText-Italic', 'Crimson Text';font-style:italic;font-size:20px;">somewhere</text>
                    <text x="234.094px" y="180.657px" style="font-family:'CrimsonText-Regular', 'Crimson Text';font-size:20px;">around</text>
                    <text x="151.692px" y="202.454px" style="font-family:'CrimsonText-Regular', 'Crimson Text';font-size:20px;">here. I&apos;m sure of it!</text>
                </g>
            </g>
        </g>
        <g transform="matrix(1,0,0,1,364.21,0)">
            <g transform="matrix(0.229368,0,0,0.229368,2872.85,222.928)">
                <g transform="matrix(0.746986,0,0,0.746986,121.339,93.9674)">
                    <path d="M568.77,227.312C580.494,225.035 601.628,222.782 609.662,211.849C610.385,210.865 612.282,208.47 612.023,207.137C611.896,206.482 610.246,204.577 610.365,204.191C611.082,201.861 612.869,199.812 614.473,198.037C618.063,194.064 622.268,190.698 625.834,186.704C626.128,186.375 629.098,183.555 628.94,182.783C628.617,181.2 625.873,180.216 625.631,178.929C624.458,172.696 627.074,165.625 628.2,159.559C628.861,155.994 629.486,152.34 629.645,148.708C629.658,148.424 629.79,145.75 629.605,145.718C625.875,145.063 622.539,145.009 618.862,145.718C618.935,145.344 618.459,147.778 618.532,147.404C620.224,138.754 621.89,130.133 623.209,121.413C623.426,119.976 625.263,114.392 624.278,112.866C620.957,107.716 615.251,111.276 612.201,104.556C610.654,101.146 610.182,97.396 609.512,93.748C609.436,93.333 608.634,88.566 608.418,88.59C605.97,88.86 597.964,93.477 596.31,91.175C592.911,86.446 591.773,80.586 590.832,74.951C590.72,74.281 590.353,69.681 589.526,69.42C582.893,67.33 577.593,69.525 571.257,69.545C568.638,69.554 565.983,69.045 563.522,68.162C562.846,67.919 560.393,66.219 559.646,66.367C556.3,67.032 553.453,67.808 549.936,67.281C546.483,66.764 543.189,65.457 539.991,64.106C539.187,63.766 536.94,62.261 536.058,62.426C532.859,63.027 533.321,66.304 531.947,68.388C530.403,70.728 527.686,71.875 525.052,72.504C519.74,73.774 514.078,73.148 508.752,72.317C508.368,72.257 500.638,70.548 500.57,70.685C500.08,71.671 500.279,75.352 500.297,76.49L500.298,76.49C500.228,76.487 501.961,76.57 501.891,76.567C496.61,76.334 491.351,75.885 486.118,75.125C485.8,75.078 481.556,74.059 481.355,74.327C478.233,78.491 479.949,80.822 473.182,83C471.5,83.542 469.499,83.9 467.738,84.099C462.913,84.645 458.069,84.135 453.31,83.303C453.236,83.29 449.849,82.492 449.773,82.618C447.762,85.976 452.765,89.416 449.879,93.293C449.179,94.234 448.369,95.074 447.48,95.839C443.681,99.107 438.919,100.871 434.096,101.977C433.561,102.1 427.428,102.903 427.389,103.129C426.389,108.901 431.951,114.719 427.906,119.276C424.39,123.238 419.137,125.54 414.199,127.147C412.222,127.79 410.203,128.299 408.175,128.753C408.14,128.76 405.827,129.237 405.828,129.243C406.201,131.736 408.317,135.022 408.201,137.433C407.974,142.152 401.873,143.824 399.52,146.972C398.016,148.982 401.502,154.665 402.503,156.324C402.917,157.01 404.228,157.652 403.815,158.34C402.929,159.815 401.184,160.707 400.323,162.13C398.749,164.73 402.553,170.655 403.468,172.932C404.773,180.262 408.69,186.501 413.646,191.963C415.349,193.84 417.154,195.636 418.984,197.388C419.66,198.036 420.351,198.669 421.058,199.283C421.416,199.594 422.574,199.962 422.156,200.187C418.411,202.203 412.371,201.865 417.388,205.327C422.735,209.017 429.481,210.855 435.716,212.408C437.657,212.892 439.606,213.343 441.551,213.813C442.555,214.055 445.573,214.34 444.561,214.549C441.764,215.125 438.963,215.63 436.135,216.028C435.382,216.134 434.63,216.231 433.876,216.325C433.406,216.384 432.088,216.21 432.466,216.495C434.393,217.95 438.301,218.122 440.593,218.462C447.2,219.445 453.861,219.552 460.483,220.277" style="fill:white;stroke:black;stroke-width:2.79px;"/>
                </g>
                <g transform="matrix(0.746986,0,0,0.746986,121.339,93.9674)">
                    <path d="M488.85,324.099C505.027,307.295 517.676,268.137 503.414,245.994C496.949,235.956 484.991,233.142 475.066,227.813C471.971,226.151 469.16,224.047 466.102,222.328C465.043,221.732 463.963,221.172 462.862,220.659C462.255,220.376 460.353,219.96 461.016,219.865C464.838,219.32 469.64,220.669 473.326,221.674C474.986,222.126 476.603,222.698 478.19,223.362C478.531,223.505 479.301,224.157 479.209,223.799C477.141,215.767 474.014,209.458 467.194,204.276C466.102,203.446 455.544,197.924 455.56,196.822C455.567,196.366 456.453,197.014 456.894,197.128C462.18,198.494 467.388,200.734 472.257,203.195C483.853,209.058 485.873,218.478 493.588,227.435C494.33,228.298 500.356,234.155 501.822,233.216C502.739,232.629 502.218,225.432 502.223,224.398C502.273,214.962 501.323,206.629 494.963,199.156C494.15,198.201 497.067,200.529 498.048,201.31C500.205,203.029 502.078,205.085 503.701,207.31C506.357,210.949 508.091,215.057 509.227,219.403C509.27,219.57 510.62,226.021 511.124,225.839C517.946,223.366 523.907,215.264 522.348,207.945C521.626,204.555 519.623,201.642 518.023,198.627C517.277,197.22 514.519,194.159 516.11,194.247C518.509,194.381 521.747,197.755 523.205,199.347C524.136,200.363 525.309,203.905 525.754,202.601C528.423,194.788 530.089,187.012 535.112,180.25C536.618,178.222 538.253,176.311 539.614,174.174C540.341,173.033 541.415,169.221 541.483,170.572C542,180.862 537.034,191.262 534.578,201.157C534.267,202.413 531.831,209.673 532.639,210.543C536.269,214.453 546.441,207.412 548.94,204.947C550.489,203.419 551.743,201.622 552.892,199.783C553.049,199.532 553.246,198.757 553.361,199.029C556.075,205.467 553.198,217.281 550.56,223.526C549.512,226.008 548.128,228.328 546.542,230.501C545.855,231.442 543.203,233.38 544.36,233.234C550.964,232.399 557.602,229.137 562.985,225.281C564.881,223.922 566.662,222.418 568.34,220.799C569.06,220.105 570.31,217.663 570.435,218.654C571.586,227.791 563.719,234.092 558.406,240.286C552.31,247.391 547.692,255.507 545.255,264.583C541.86,277.229 539.64,296.624 545.352,309.203C547.448,313.819 551.727,317.001 556.051,319.357C557.417,320.101 558.818,320.777 560.239,321.411C560.943,321.726 562.985,321.914 562.351,322.354C558.743,324.854 553.305,326.009 549.097,326.645C548.924,326.671 546.714,326.868 546.708,326.915C546.312,329.997 546.912,333.351 547.826,336.297C548.313,337.868 551.114,341.423 549.549,340.919C544.131,339.176 539.299,335.978 534.708,332.689C533,331.465 531.282,330.256 529.573,329.034C529.094,328.691 528.069,327.418 528.14,328.002C528.26,328.997 529.558,330.509 530.066,331.378C530.457,332.047 531.976,333.608 531.235,333.385C527.161,332.159 524.52,330.52 521.194,328.225C519.455,327.025 504.942,335.208 503.701,336.297C502.459,337.389 500.643,341.077 499.968,339.567C499.447,338.403 505.722,330.963 506.819,329.216C507.589,327.99 510.521,325.574 509.074,325.504C503.153,325.219 502.885,325.847 497.156,327.33C495.207,327.835 493.263,328.343 491.296,328.777C490.249,329.007 477.86,333.708 478.19,332.689C479.641,328.203 486.946,328.42 488.85,324.099" style="fill:white;stroke:black;stroke-width:2.79px;"/>
                </g>
                <path d="M474.371,346.845C474.483,345.145 474.395,343.37 474.063,341.696" style="fill:none;stroke:black;stroke-width:2.08px;"/>
                <path d="M477.489,346.822C477.266,343.241 476.732,339.665 476.613,336.08" style="fill:none;stroke:black;stroke-width:2.08px;"/>
                <path d="M480.817,345.929C480.892,344.562 481.041,343.209 481.243,341.855" style="fill:none;stroke:black;stroke-width:2.08px;"/>
                <path d="M476.195,345.84C476.014,344.081 475.9,342.209 475.129,340.586" style="fill:none;stroke:black;stroke-width:2.08px;"/>
                <path d="M524.996,348.062C524.996,345.937 525.267,343.556 524.853,341.445" style="fill:none;stroke:black;stroke-width:2.08px;"/>
                <path d="M527.267,350.019C527.36,348.455 527.491,346.883 527.709,345.331" style="fill:none;stroke:black;stroke-width:2.08px;"/>
                <path d="M529.859,350.698C529.859,346.382 529.784,341.957 531.095,337.793" style="fill:none;stroke:black;stroke-width:2.08px;"/>
                <path d="M526.419,347.491C526.412,345.591 526.187,343.762 525.823,341.905" style="fill:none;stroke:black;stroke-width:2.08px;"/>
            </g>
        </g>
        <g transform="matrix(1,0,0,1,364.21,0)">
            <g transform="matrix(0.339174,0,0,0.339174,2969.69,204.078)">
                <g transform="matrix(1,0,0,1,-1.85189,0)">
                    <path d="M181.592,76.67C180.688,76.191 179.692,75.81 178.664,75.74" style="fill:none;stroke:black;stroke-width:1.41px;"/>
                </g>
                <g transform="matrix(1,0,0,1,-1.85189,0)">
                    <path d="M181.664,76.609C182.703,76.542 183.76,76.387 184.491,77.281" style="fill:none;stroke:black;stroke-width:1.41px;"/>
                </g>
                <g transform="matrix(1,0,0,1,-1.85189,0)">
                    <path d="M179.491,78.337C179.593,78.441 179.711,78.758 179.8,78.644C179.914,78.495 179.81,77.983 179.876,77.763C179.994,77.375 180.452,76.919 180.745,76.633C180.982,76.401 181.26,76.219 181.524,76.021C181.648,75.928 182.005,75.632 181.895,75.741C181.416,76.216 180.908,76.684 180.395,77.123C180.225,77.268 180.048,77.409 179.892,77.57C179.815,77.649 179.601,77.903 179.674,77.82C179.993,77.456 180.334,77.127 180.71,76.821" style="fill:none;stroke:black;stroke-width:1.41px;"/>
                </g>
            </g>
        </g>
    </g>
</svg>
