<?xml version="1.0" encoding="UTF-8" standalone="no"?>
<!DOCTYPE svg PUBLIC "-//W3C//DTD SVG 1.1//EN" "http://www.w3.org/Graphics/SVG/1.1/DTD/svg11.dtd">
<svg width="100%" height="100%" viewBox="0 0 89 50" version="1.1" xmlns="http://www.w3.org/2000/svg" xmlns:xlink="http://www.w3.org/1999/xlink" xml:space="preserve" xmlns:serif="http://www.serif.com/" style="fill-rule:evenodd;clip-rule:evenodd;stroke-linejoin:round;stroke-miterlimit:2;">
    <g transform="matrix(1,0,0,1,-3163.41,-433.452)">
        <g transform="matrix(1,0,0,1,364.21,0)">
            <g transform="matrix(1,0,0,1,-345.562,-1.77766)">
                <rect x="3144.76" y="435.23" width="88.731" height="49.898" style="fill:rgb(239,239,239);"/>
            </g>
        </g>
        <g transform="matrix(1,0,0,1,364.21,0)">
            <g transform="matrix(5.51195,-1.84198,1.84198,5.51195,1741.58,39.6323)">
                <text x="151.692px" y="128.179px" style="font-family:'CrimsonText-Bold', 'Crimson Text';font-weight:700;font-size:6.881px;fill:white;">a</text>
            </g>
        </g>
        <g transform="matrix(1,0,0,1,364.21,0)">
            <g transform="matrix(5.71576,1.05101,-1.05101,5.71576,2097.88,-417.728)">
                <text x="151.692px" y="128.179px" style="font-family:'CrimsonText-Bold', 'Crimson Text';font-weight:700;font-size:6.881px;fill:white;">b</text>
            </g>
        </g>
        <g transform="matrix(1,0,0,1,364.21,0)">
            <g transform="matrix(5.3717,-2.21796,2.21796,5.3717,1763.49,119.38)">
                <text x="151.692px" y="128.179px" style="font-family:'CrimsonText-Bold', 'Crimson Text';font-weight:700;font-size:6.881px;fill:white;">c</text>
            </g>
        </g>
    </g>
</svg>
