<?xml version="1.0" encoding="UTF-8" standalone="no"?>
<!DOCTYPE svg PUBLIC "-//W3C//DTD SVG 1.1//EN" "http://www.w3.org/Graphics/SVG/1.1/DTD/svg11.dtd">
<svg width="100%" height="100%" viewBox="0 0 12 12" version="1.1" xmlns="http://www.w3.org/2000/svg" xmlns:xlink="http://www.w3.org/1999/xlink" xml:space="preserve" xmlns:serif="http://www.serif.com/" style="fill-rule:evenodd;clip-rule:evenodd;stroke-linejoin:round;stroke-miterlimit:2;">
    <g transform="matrix(1,0,0,1,-8167.73,-1795.8)">
        <g transform="matrix(1,0,0,1,916.131,1646.15)">
            <g transform="matrix(1,0,0,1,99.3154,25.4168)">
                <g transform="matrix(0.559677,-0.550004,0.937926,0.921715,980.076,2942.57)">
                    <path d="M8085.32,1767.19C8085.32,1766.87 8084.88,1766.61 8084.34,1766.61L8072.23,1766.61C8071.69,1766.61 8071.25,1766.87 8071.25,1767.19L8071.25,1768.36C8071.25,1768.68 8071.69,1768.94 8072.23,1768.94L8084.34,1768.94C8084.88,1768.94 8085.32,1768.68 8085.32,1768.36L8085.32,1767.19Z" style="fill:rgb(227,215,143);"/>
                </g>
                <g transform="matrix(-0.937926,-0.921715,0.937926,-0.921715,13080.8,9203.69)">
                    <path d="M8079.39,1758.69C8079.44,1758.57 8079.49,1758.57 8079.54,1758.69L8080.64,1760.88L8078.3,1760.88L8079.39,1758.69Z" style="fill:rgb(227,215,143);"/>
                </g>
            </g>
        </g>
    </g>
</svg>
